<?xml version="1.0" encoding="utf-8"?>
<!-- Generator: Adobe Illustrator 21.0.0, SVG Export Plug-In . SVG Version: 6.00 Build 0)  -->
<svg version="1.1" id="Layer_1" xmlns="http://www.w3.org/2000/svg" xmlns:xlink="http://www.w3.org/1999/xlink" x="0px" y="0px"
	 viewBox="0 0 234 335" style="enable-background:new 0 0 234 335;" xml:space="preserve">
<style type="text/css">
	.st0{fill:#FFFFFF;}
	.st1{fill:#2B00A4;}
	.st2{fill:#FFFEFF;}
	.st3{fill:#F8F7F8;}
	.st4{fill:#C6C5C7;}
	.st5{fill:#F3F2F3;}
	.st6{fill:#00D664;}
</style>
<g>
	<path class="st0" d="M191.1,335.4H42.9c-23.8,0-43.2-19.3-43.2-43.2V42.8C-0.3,18.9,19-0.4,42.9-0.4h148.3
		c23.8,0,43.2,19.3,43.2,43.2v249.4C234.3,316.1,215,335.4,191.1,335.4z"/>
	<g>
		<path class="st1" d="M191.8,308.1H38.4c-11.9,0-21.6-9.7-21.6-21.6V48.5c0-11.9,9.7-21.6,21.6-21.6h153.3
			c11.9,0,21.6,9.7,21.6,21.6v238.1C213.3,298.4,203.7,308.1,191.8,308.1z"/>
		<path class="st2" d="M57.7,331.1l27.2-110.8l-35.1-67.1c-0.3-0.6,0.1-1.4,0.8-1.4h10.7c2.6,0,5.1,1,6.9,2.9l51.6,53.1l95,28.2
			l2.3,72.1l-53.5,17.7L57.7,331.1z"/>
		<path class="st3" d="M48.6,287.1l21.6-7l-1.8,7.3L48,290.1v-2C48,287.6,48.2,287.3,48.6,287.1z"/>
		<path class="st4" d="M48,298.9v-8.9l20.5-2.7l-3.7,14.9l-16-2.4C48.3,299.8,48,299.4,48,298.9z"/>
		<path class="st5" d="M95,247l24.9-39.2l-34.9,12.5l-7.1,28.9h13.1C92.6,249.2,94.1,248.4,95,247z"/>
		<g id="PnGiau_1_">
			<g>
				<path class="st6" d="M82.7,169.6c-0.6-0.1-1.1-0.1-1.7-0.1c-7.7,0-14.2,4.9-16.5,11.7l11.7,22.4c1.5,0.4,3.1,0.6,4.7,0.6
					c9.7,0,17.4-7.7,17.4-17.3c0-0.5,0-0.9,0-1.4L82.7,169.6z"/>
				<path class="st0" d="M75,186.6c-0.9,0-1.8,0-2.7,0c-1.1,0-1.6-0.5-1.6-1.6c0-1.6,0.4-2,1.9-2c1.3,0,2.7,0,4,0
					c0.5,0,0.9,0,1.4,0.1c0-1.9,0-3.8,0-5.7c0-1,0.6-1.5,1.5-1.5c0.2,0,0.5,0,0.7,0c1,0,1.5,0.5,1.5,1.5c0,0.9,0,1.9,0,2.8
					c0,0.3,0.1,0.4,0.4,0.4c0.8,0,1.7,0,2.5,0c1,0,1.5,0.5,1.5,1.5c0,0.3,0,0.6,0,0.8c-0.1,0.7-0.6,1.2-1.3,1.2c-1.8,0-3.7,0-5.5,0
					c-0.2,0-0.3,0-0.5-0.1c0,2.1,0,4.3,0,6.4c0,1.4,0.6,2.6,1.9,3.3c1.9,1,4.9,0.2,5.3-2.7c0-0.2,0.1-0.5,0.2-0.7
					c0.2-0.5,0.6-0.8,1.1-0.8c0.5,0,0.9,0,1.4,0c0.8,0,1.3,0.6,1.2,1.4c-0.4,3.8-3,6.6-6.9,6.8c-2,0.1-4-0.3-5.6-1.6
					c-1.8-1.5-2.5-3.5-2.6-5.7c0-1.2,0-2.4,0-3.5C75.1,186.8,75.2,186.7,75,186.6C75,186.6,75,186.6,75,186.6z"/>
			</g>
		</g>
	</g>
	<path class="st0" d="M199.7,48H30.4c-7.5,0-13.6-6.1-13.6-13.6v-12h196.5v12C213.3,41.9,207.2,48,199.7,48z"/>
	<path class="st6" d="M134.8,38.6H99.2c-1.3,0-2.4-1.1-2.4-2.4v0c0-1.3,1.1-2.4,2.4-2.4h35.6c1.3,0,2.4,1.1,2.4,2.4v0
		C137.2,37.6,136.1,38.6,134.8,38.6z"/>
</g>
</svg>
