<?xml version="1.0" encoding="utf-8"?>
<!-- Generator: Adobe Illustrator 21.0.0, SVG Export Plug-In . SVG Version: 6.00 Build 0)  -->
<svg version="1.1" id="Layer_2" xmlns="http://www.w3.org/2000/svg" xmlns:xlink="http://www.w3.org/1999/xlink" x="0px" y="0px"
	 viewBox="0 0 200 328" style="enable-background:new 0 0 200 328;" xml:space="preserve">
<style type="text/css">
	.st0{fill:#FFFFFF;}
</style>
<g>
	<path class="st0" d="M100,190.1c-2.3,0-4.2,0.8-5.8,2.4c-1.6,1.6-2.4,3.5-2.4,5.8c0,2.3,0.8,4.2,2.4,5.8c1.6,1.6,3.5,2.4,5.8,2.4
		s4.2-0.8,5.8-2.4c1.6-1.6,2.4-3.5,2.4-5.8c0-2.3-0.8-4.2-2.4-5.8C104.2,190.9,102.3,190.1,100,190.1z"/>
	<polygon class="st0" points="91.9,153.4 95.9,182 104.1,182 108.1,153.4 108.1,141.2 91.9,141.2 	"/>
	<path class="st0" d="M181.5,0H18.5C8.4,0,0.2,8.2,0.2,18.4v291.3c0,10.1,8.2,18.4,18.4,18.4h162.9c10.1,0,18.4-8.2,18.4-18.4V18.4
		C199.8,8.2,191.6,0,181.5,0z M157.7,212.6c-2.4,4-5.9,6-10.6,6H52.9c-4.7,0-8.2-2-10.6-6c-2.4-4-2.4-8.1-0.1-12.2l47.1-84.8
		c2.4-4.2,6-6.2,10.8-6.2c4.8,0,8.3,2.1,10.6,6.2l47.1,84.8C160.1,204.5,160.1,208.5,157.7,212.6z"/>
</g>
</svg>
