<?xml version="1.0" encoding="utf-8"?>
<!-- Generator: Adobe Illustrator 21.0.0, SVG Export Plug-In . SVG Version: 6.00 Build 0)  -->
<svg version="1.1" id="Layer_1" xmlns="http://www.w3.org/2000/svg" xmlns:xlink="http://www.w3.org/1999/xlink" x="0px" y="0px"
	 viewBox="0 0 80 209" style="enable-background:new 0 0 80 209;" xml:space="preserve">
<style type="text/css">
	.st0{fill:#FF3268;}
	.st1{fill:#FFFFFF;}
</style>
<g>
	<path class="st0" d="M80.1,40.2v129.1c0,22.1-17.9,40.1-40.1,40.1l0,0c-22.1,0-40-17.9-40-40.1V40.2C0,18.1,17.9,0.1,40.1,0.1l0,0
		C62.2,0.1,80.1,18.1,80.1,40.2z"/>
</g>
<g>
	<g>
		<path class="st1" d="M67.9,101.7l-56.4-9.9c-1-0.2-1.7-1.2-1.5-2.2l0.1-0.5c0.2-1,1.2-1.7,2.2-1.5l56.4,9.9c1,0.2,1.7,1.2,1.5,2.2
			l-0.1,0.5C69.9,101.2,68.9,101.9,67.9,101.7z"/>
		<g>
			<path class="st1" d="M43.7,91.7c2.8-3.5,4.3-8.6,3-8.8c-2.1-0.4-6.6,1.4-8.8,1.7c-3.1,0.4-6.5-3.4-8.4-1.3
				c-0.9,1-0.3,3.6,1.2,6.1L43.7,91.7z"/>
			<path class="st1" d="M30.8,96.6c-9.6,8.7-12.8,28.7,4.5,29.6c25.3,1.3,23.8-15.9,15-26.2L30.8,96.6z"/>
		</g>
	</g>
</g>
</svg>
