<?xml version="1.0" encoding="utf-8"?>
<!-- Generator: Adobe Illustrator 21.0.0, SVG Export Plug-In . SVG Version: 6.00 Build 0)  -->
<svg version="1.1" id="Layer_1" xmlns="http://www.w3.org/2000/svg" xmlns:xlink="http://www.w3.org/1999/xlink" x="0px" y="0px"
	 viewBox="0 0 14.7 14.7" style="enable-background:new 0 0 14.7 14.7;" xml:space="preserve">
<style type="text/css">
	.st0{fill:#00D66C;}
	.st1{fill:#FFFFFF;}
</style>
<g>
	<g>
		<path class="st0" d="M11.9,9.1L8.1,0.4C7.7-0.1,7-0.1,6.6,0.4L2.8,9.1H11.9z"/>
		<g>
			<ellipse transform="matrix(0.7071 -0.7071 0.7071 0.7071 -4.2726 7.8587)" class="st0" cx="7.3" cy="9.1" rx="5.6" ry="5.6"/>
		</g>
	</g>
	<path class="st1" d="M9.2,12l-1.7-1.5c-0.1,0-0.1,0-0.2,0L5.5,12c-0.1,0.1-0.2,0-0.2-0.1V6.6c0-0.1,0.1-0.1,0.1-0.1h3.8
		c0.1,0,0.1,0.1,0.1,0.1v5.2C9.4,12,9.2,12,9.2,12z"/>
</g>
</svg>
