<?xml version="1.0" encoding="utf-8"?>
<!-- Generator: Adobe Illustrator 21.0.0, SVG Export Plug-In . SVG Version: 6.00 Build 0)  -->
<svg version="1.1" id="Layer_1" xmlns="http://www.w3.org/2000/svg" xmlns:xlink="http://www.w3.org/1999/xlink" x="0px" y="0px"
	 viewBox="0 0 16.2 14.7" style="enable-background:new 0 0 16.2 14.7;" xml:space="preserve">
<style type="text/css">
	.st0{fill:#FFFFFF;}
</style>
<g>
	<g>
		<path class="st0" d="M11.3,9.2l4.2,4.2l-1.4,1.4l-4.2-4.2c-0.5,0.3-1,0.6-1.6,0.8c-0.6,0.2-1.2,0.3-1.8,0.3
			c-0.8,0-1.6-0.2-2.3-0.5C3.6,10.8,3,10.4,2.4,9.9C1.9,9.4,1.5,8.8,1.2,8.1C0.9,7.4,0.8,6.6,0.8,5.8c0-0.8,0.2-1.6,0.5-2.3
			s0.7-1.3,1.2-1.8C3,1.2,3.6,0.8,4.3,0.5C5,0.2,5.7,0,6.6,0c0.8,0,1.6,0.2,2.3,0.5c0.7,0.3,1.3,0.7,1.8,1.2
			c0.5,0.5,0.9,1.1,1.2,1.8c0.3,0.7,0.5,1.5,0.5,2.3c0,0.6-0.1,1.2-0.3,1.8C11.9,8.2,11.6,8.7,11.3,9.2z M8.1,9.4
			C8.6,9.2,9,9,9.4,8.6c0.4-0.4,0.6-0.8,0.8-1.3s0.3-1,0.3-1.5s-0.1-1.1-0.3-1.5S9.7,3.4,9.4,3C9,2.6,8.6,2.4,8.1,2.2
			c-0.5-0.2-1-0.3-1.5-0.3S5.5,1.9,5,2.2C4.5,2.4,4.1,2.6,3.7,3C3.4,3.4,3.1,3.8,2.9,4.3c-0.2,0.5-0.3,1-0.3,1.5s0.1,1.1,0.3,1.5
			c0.2,0.5,0.5,0.9,0.8,1.3C4.1,9,4.5,9.2,5,9.4c0.5,0.2,1,0.3,1.5,0.3S7.6,9.7,8.1,9.4z"/>
	</g>
</g>
</svg>
