<?xml version="1.0" encoding="utf-8"?>
<!-- Generator: Adobe Illustrator 21.0.0, SVG Export Plug-In . SVG Version: 6.00 Build 0)  -->
<svg version="1.1" id="Layer_1" xmlns="http://www.w3.org/2000/svg" xmlns:xlink="http://www.w3.org/1999/xlink" x="0px" y="0px"
	 viewBox="0 0 60 60" style="enable-background:new 0 0 60 60;" xml:space="preserve">
<style type="text/css">
	.st0{fill:#00D66C;}
</style>
<g id="Search">
	<path class="st0" d="M58.5,51.4l-13-13c-0.1-0.1-0.2-0.1-0.2-0.2c2.6-3.9,4.1-8.5,4.1-13.6C49.3,11,38.3,0,24.7,0S0,11,0,24.7
		c0,13.6,11,24.7,24.7,24.7c5,0,9.7-1.5,13.6-4.1c0.1,0.1,0.1,0.2,0.2,0.2l13,13c2,2,5.1,2,7.1,0C60.5,56.6,60.5,53.4,58.5,51.4z
		 M24.7,40.8c-8.9,0-16.1-7.2-16.1-16.1c0-8.9,7.2-16.1,16.1-16.1c8.9,0,16.1,7.2,16.1,16.1S33.6,40.8,24.7,40.8z"/>
</g>
</svg>
