<?xml version="1.0" encoding="utf-8"?>
<!-- Generator: Adobe Illustrator 21.0.0, SVG Export Plug-In . SVG Version: 6.00 Build 0)  -->
<svg version="1.1" id="Layer_1" xmlns="http://www.w3.org/2000/svg" xmlns:xlink="http://www.w3.org/1999/xlink" x="0px" y="0px"
	 viewBox="0 0 16.2 14.7" style="enable-background:new 0 0 16.2 14.7;" xml:space="preserve">
<style type="text/css">
	.st0{fill:#FFFFFF;}
</style>
<path class="st0" d="M8.1,0C4.1,0,0.8,3.3,0.8,7.3s3.3,7.3,7.3,7.3c4.1,0,7.3-3.3,7.3-7.3S12.2,0,8.1,0z M12,11.1
	c-0.1,0.1-0.3,0.2-0.4,0.2c-0.2,0-0.3-0.1-0.4-0.2L7.5,7.6V1.9c0-0.3,0.3-0.6,0.6-0.6c0.3,0,0.6,0.3,0.6,0.6v5.2l3.2,3.2
	C12.2,10.5,12.2,10.9,12,11.1z"/>
</svg>
