<?xml version="1.0" encoding="utf-8"?>
<!-- Generator: Adobe Illustrator 21.0.0, SVG Export Plug-In . SVG Version: 6.00 Build 0)  -->
<svg version="1.1" id="Layer_1" xmlns="http://www.w3.org/2000/svg" xmlns:xlink="http://www.w3.org/1999/xlink" x="0px" y="0px"
	 viewBox="0 0 58 58" style="enable-background:new 0 0 58 58;" xml:space="preserve">
<style type="text/css">
	.st0{fill:#F8E5D7;}
	.st1{fill:#2800A0;}
</style>
<g>
	<path class="st0" d="M29,57.8L29,57.8C13.1,57.8,0.2,44.9,0.2,29v0C0.2,13.1,13.1,0.2,29,0.2h0c15.9,0,28.8,12.9,28.8,28.8v0
		C57.8,44.9,44.9,57.8,29,57.8z"/>
	<path class="st1" d="M39.3,18.6c-2.7-2.7-6.4-4.2-10.2-4.2c-8,0-14.5,6.5-14.5,14.5c0,2.6,0.7,5,1.9,7.2l-2.1,7.5l7.7-2
		c2.1,1.2,4.5,1.8,6.9,1.8h0c8,0,14.5-6.5,14.5-14.5C43.5,25,42,21.4,39.3,18.6 M29.1,40.9L29.1,40.9c-2.2,0-4.3-0.6-6.1-1.7
		L22.5,39l-4.6,1.2l1.2-4.4l-0.3-0.5c-1.2-1.9-1.8-4.1-1.8-6.4c0-6.6,5.4-12,12-12c3.2,0,6.2,1.3,8.5,3.5s3.5,5.3,3.5,8.5
		C41.1,35.5,35.7,40.9,29.1,40.9 M35.7,31.9c-0.4-0.2-2.1-1.1-2.5-1.2c-0.3-0.1-0.6-0.2-0.8,0.2c-0.2,0.4-0.9,1.2-1.1,1.4
		c-0.2,0.2-0.4,0.3-0.8,0.1c-0.4-0.2-1.5-0.6-2.9-1.8c-1.1-1-1.8-2.1-2-2.5c-0.2-0.4,0-0.6,0.2-0.7c0.2-0.2,0.4-0.4,0.5-0.6
		c0.2-0.2,0.2-0.4,0.4-0.6c0.1-0.2,0.1-0.5,0-0.6c-0.1-0.2-0.8-2-1.1-2.7c-0.3-0.7-0.6-0.6-0.8-0.6c-0.2,0-0.5,0-0.7,0
		c-0.2,0-0.6,0.1-1,0.5c-0.3,0.4-1.3,1.2-1.3,3c0,1.8,1.3,3.5,1.5,3.7c0.2,0.2,2.6,3.9,6.2,5.5c0.9,0.4,1.5,0.6,2.1,0.8
		c0.9,0.3,1.7,0.2,2.3,0.1c0.7-0.1,2.1-0.9,2.4-1.7c0.3-0.8,0.3-1.6,0.2-1.7C36.3,32.2,36,32.1,35.7,31.9"/>
</g>
</svg>
