<?xml version="1.0" encoding="utf-8"?>
<!-- Generator: Adobe Illustrator 21.0.0, SVG Export Plug-In . SVG Version: 6.00 Build 0)  -->
<svg version="1.1" id="Layer_1" xmlns="http://www.w3.org/2000/svg" xmlns:xlink="http://www.w3.org/1999/xlink" x="0px" y="0px"
	 viewBox="0 0 58 58" style="enable-background:new 0 0 58 58;" xml:space="preserve">
<style type="text/css">
	.st0{fill:#FF2E6A;}
	.st1{fill:#FFFFFF;}
</style>
<g>
	<path class="st0" d="M29,57.8L29,57.8C13.1,57.8,0.2,44.9,0.2,29v0C0.2,13.1,13.1,0.2,29,0.2h0c15.9,0,28.8,12.9,28.8,28.8v0
		C57.8,44.9,44.9,57.8,29,57.8z"/>
	<path class="st1" d="M26.4,39.6c-5.7-0.1-7.6-0.2-8.8-0.4c-0.8-0.2-1.5-0.5-2-1c-0.4-0.4-0.7-1-1-1.8c-0.2-0.7-0.3-1.3-0.4-2.7
		c-0.2-3.2-0.2-5.8,0-8.8c0.2-1.6,0.3-3.5,1.5-4.7c0.6-0.5,1.2-0.9,2-1c1.2-0.2,6.1-0.4,11.3-0.4c5.1,0,10.1,0.2,11.3,0.4
		c0.9,0.2,1.8,0.7,2.3,1.4c1.1,1.7,1.1,3.9,1.2,5.6c0,0.8,0,5.4,0,6.2c-0.2,2.7-0.3,3.6-0.7,4.6c-0.2,0.6-0.5,0.9-0.8,1.3
		c-0.6,0.6-1.3,0.9-2.1,1.1C35.3,39.6,31.2,39.6,26.4,39.6L26.4,39.6z M33.9,28.8c-2.7-1.5-5.3-2.8-8-4.2V33
		C28.8,31.5,31.7,30.1,33.9,28.8L33.9,28.8L33.9,28.8z"/>
</g>
</svg>
