<?xml version="1.0" encoding="utf-8"?>
<!-- Generator: Adobe Illustrator 21.0.0, SVG Export Plug-In . SVG Version: 6.00 Build 0)  -->
<svg version="1.1" id="Layer_1" xmlns="http://www.w3.org/2000/svg" xmlns:xlink="http://www.w3.org/1999/xlink" x="0px" y="0px"
	 viewBox="0 0 80 209" style="enable-background:new 0 0 80 209;" xml:space="preserve">
<style type="text/css">
	.st0{fill:#FF3268;}
	.st1{fill:#FFFFFF;}
</style>
<g>
	<g>
		<path class="st0" d="M80.1,40.2v129.1c0,22.1-17.9,40.1-40.1,40.1h0C17.9,209.4,0,191.5,0,169.3L0,40.2C0,18.1,17.9,0.1,40.1,0.1
			h0C62.2,0.1,80.1,18.1,80.1,40.2z"/>
	</g>
	<g>
		<g>
			<path class="st1" d="M60.1,118.5l1.7,5.9H18.4l1.7-5.9c0.3-1.1,0.9-2.1,1.7-2.9c0.8-0.8,1.8-1.4,2.9-1.7l8-2.3l7.4,7.4
				c0-0.1,0.2-0.3,0.7-0.8c0.5-0.5,1.1-1.1,1.8-1.8c0.7-0.7,1.5-1.5,2.4-2.4c0.9-0.8,1.7-1.7,2.5-2.5l8.1,2.3
				c1.1,0.3,2.1,0.9,2.9,1.7C59.2,116.5,59.8,117.4,60.1,118.5z M40.1,109.5c-1.3,0-2.5-0.3-3.6-1c-1.1-0.7-2-1.6-2.9-2.8
				c-0.8-1.2-1.5-2.5-2-4.1c-0.5-1.6-0.9-3.2-1-5c-0.1-1.8,0-3.4,0.5-4.8c0.5-1.4,1.2-2.6,2.1-3.6c0.9-1,1.9-1.8,3.1-2.3
				c1.2-0.5,2.5-0.8,3.8-0.8c1.3,0,2.6,0.3,3.8,0.8c1.2,0.5,2.2,1.3,3.1,2.3c0.9,1,1.6,2.2,2.1,3.6c0.5,1.4,0.6,3,0.5,4.8
				c-0.1,1.8-0.5,3.5-1,5c-0.5,1.6-1.2,2.9-2,4.1c-0.8,1.2-1.8,2.1-2.9,2.8C42.6,109.2,41.4,109.5,40.1,109.5z"/>
		</g>
	</g>
</g>
</svg>
