<?xml version="1.0" encoding="utf-8"?>
<!-- Generator: Adobe Illustrator 21.0.0, SVG Export Plug-In . SVG Version: 6.00 Build 0)  -->
<svg version="1.1" id="Layer_1" xmlns="http://www.w3.org/2000/svg" xmlns:xlink="http://www.w3.org/1999/xlink" x="0px" y="0px"
	 viewBox="0 0 88.5 109.6" style="enable-background:new 0 0 88.5 109.6;" xml:space="preserve">
<style type="text/css">
	.st0{fill:#FFFFFF;}
</style>
<g>
	<g>
		<path class="st0" d="M58.9,2.9c4.6,2,8.6,4.7,12,8.1c3.4,3.4,6.1,7.4,8.1,12c2,4.6,2.9,9.5,2.9,14.7c0,4.1-0.8,8.3-2.5,12.6
			c-1.7,4.2-3.5,8-5.5,11.3c-3.6,5.9-7.1,11.8-10.7,17.5c-3.6,5.7-6.7,10.9-9.5,15.4c-2.8,4.5-5.9,9.6-9.4,15.1
			c-3.5-5.6-6.6-10.6-9.4-15.1s-6-9.7-9.5-15.4c-3.6-5.7-7.1-11.6-10.7-17.5c-2-3.3-3.8-7-5.5-11.3C7.4,46,6.6,41.8,6.6,37.7
			c0-5.2,1-10.1,2.9-14.7c2-4.6,4.7-8.6,8.1-12s7.4-6.1,12-8.1C34.2,1,39.1,0,44.3,0C49.5,0,54.4,1,58.9,2.9z M44.3,55.4
			c4.9,0,9-1.7,12.5-5.2c3.5-3.5,5.2-7.6,5.2-12.5c0-4.9-1.7-9-5.2-12.5c-3.5-3.5-7.6-5.2-12.5-5.2c-4.9,0-9,1.7-12.5,5.2
			c-3.5,3.5-5.2,7.6-5.2,12.5c0,4.9,1.7,9,5.2,12.5C35.3,53.6,39.4,55.4,44.3,55.4z"/>
	</g>
</g>
</svg>
