<?xml version="1.0" encoding="utf-8"?>
<!-- Generator: Adobe Illustrator 21.0.0, SVG Export Plug-In . SVG Version: 6.00 Build 0)  -->
<svg version="1.1" id="Layer_1" xmlns="http://www.w3.org/2000/svg" xmlns:xlink="http://www.w3.org/1999/xlink" x="0px" y="0px"
	 viewBox="0 0 16.2 14.7" style="enable-background:new 0 0 16.2 14.7;" xml:space="preserve">
<style type="text/css">
	.st0{fill:#FFFFFF;}
</style>
<g>
	<path class="st0" d="M14.1,5.9c0-0.2,0.1-0.4,0.1-0.5c0-2.2-1.8-4.1-4.1-4.1c-1.3,0-2.5,0.6-3.2,1.6C6.6,2.8,6.4,2.8,6.1,2.8
		c-2,0-3.5,1.6-3.5,3.5c0,0.1,0,0.1,0,0.2C1.1,6.9,0,8.3,0,9.9c0,2,1.6,3.5,3.5,3.5h8.6c2.2,0,4.1-1.8,4.1-4.1
		C16.2,7.9,15.4,6.6,14.1,5.9z M8,11.3L5.3,8.6c-0.1-0.1,0-0.3,0.1-0.3h1.6V5.5c0-0.1,0.1-0.2,0.2-0.2H9c0.1,0,0.2,0.1,0.2,0.2v2.7
		c0,0.1,0.1,0.2,0.2,0.2h1.5c0.1,0,0.2,0.2,0.1,0.3l-2.7,2.7C8.2,11.3,8,11.3,8,11.3z"/>
</g>
</svg>
