<?xml version="1.0" encoding="utf-8"?>
<!-- Generator: Adobe Illustrator 21.0.0, SVG Export Plug-In . SVG Version: 6.00 Build 0)  -->
<svg version="1.1" id="Layer_1" xmlns="http://www.w3.org/2000/svg" xmlns:xlink="http://www.w3.org/1999/xlink" x="0px" y="0px"
	 viewBox="0 0 88.5 63.6" style="enable-background:new 0 0 88.5 63.6;" xml:space="preserve">
<style type="text/css">
	.st0{fill:#FFFFFF;}
</style>
<g>
	<path class="st0" d="M88.5,52.6v5.5c0,1.6-0.5,2.9-1.6,3.9c-1.1,1.1-2.4,1.6-3.9,1.6H5.5c-1.5,0-2.8-0.5-3.9-1.6
		C0.5,61,0,59.7,0,58.1v-5.5l11.1-11.1V2.8c0-0.7,0.3-1.4,0.8-1.9C12.4,0.3,13.1,0,13.8,0h60.9c0.7,0,1.4,0.3,1.9,0.8
		c0.5,0.6,0.8,1.2,0.8,1.9v38.7L88.5,52.6z M71.9,5.5H16.6v36h55.3V5.5z M44.8,34.7L33.2,23.2l3.9-4l7.1,7l9.3-12.6l4.4,3.3
		L44.8,34.7z M55.3,52.6H33.2v2.8h22.1V52.6z"/>
</g>
</svg>
