<?xml version="1.0" encoding="utf-8"?>
<!-- Generator: Adobe Illustrator 21.0.0, SVG Export Plug-In . SVG Version: 6.00 Build 0)  -->
<svg version="1.1" id="Layer_1" xmlns="http://www.w3.org/2000/svg" xmlns:xlink="http://www.w3.org/1999/xlink" x="0px" y="0px"
	 viewBox="0 0 58 58" style="enable-background:new 0 0 58 58;" xml:space="preserve">
<style type="text/css">
	.st0{fill:#00D66C;}
	.st1{fill:#FFFFFF;}
</style>
<g>
	<path class="st0" d="M29,57.8L29,57.8C13.1,57.8,0.2,44.9,0.2,29v0C0.2,13.1,13.1,0.2,29,0.2h0c15.9,0,28.8,12.9,28.8,28.8v0
		C57.8,44.9,44.9,57.8,29,57.8z"/>
	<path class="st1" d="M31.2,43.4V30.1h4.4l0.7-5.1h-5.1v-3.3c0-1.5,0.4-2.5,2.6-2.5l2.7,0v-4.6c-0.5-0.1-2.1-0.2-4-0.2
		c-3.9,0-6.6,2.4-6.6,6.8V25h-4.4v5.1h4.4v13.2L31.2,43.4L31.2,43.4z"/>
</g>
</svg>
