<?xml version="1.0" encoding="utf-8"?>
<!-- Generator: Adobe Illustrator 21.0.0, SVG Export Plug-In . SVG Version: 6.00 Build 0)  -->
<svg version="1.1" id="Layer_1" xmlns="http://www.w3.org/2000/svg" xmlns:xlink="http://www.w3.org/1999/xlink" x="0px" y="0px"
	 viewBox="0 0 234.7 335.8" style="enable-background:new 0 0 234.7 335.8;" xml:space="preserve">
<style type="text/css">
	.st0{fill:#FFFFFF;}
	.st1{fill:#2B00A4;}
	.st2{fill:#00D664;}
	.st3{fill:#FFFEFF;}
	.st4{fill:#F8F7F8;}
	.st5{fill:#C6C5C7;}
	.st6{fill:#F3F2F3;}
</style>
<path class="st0" d="M191.4,335.8H43.2C19.4,335.8,0,316.5,0,292.6V43.2C0,19.3,19.3,0,43.2,0h148.3c23.8,0,43.2,19.3,43.2,43.2
	v249.4C234.6,316.5,215.3,335.8,191.4,335.8z"/>
<g>
	<path class="st1" d="M194.1,308.5H40.7c-11.9,0-21.6-9.7-21.6-21.6v-238c0-11.9,9.7-21.6,21.6-21.6H194c11.9,0,21.6,9.7,21.6,21.6
		V287C215.6,298.8,206,308.5,194.1,308.5z"/>
	<path class="st0" d="M202,48.4H32.7c-7.5,0-13.6-6.1-13.6-13.6v-12h196.5v12C215.6,42.3,209.5,48.4,202,48.4z"/>
	<path class="st2" d="M137.1,39h-35.6c-1.3,0-2.4-1.1-2.4-2.4l0,0c0-1.3,1.1-2.4,2.4-2.4h35.6c1.3,0,2.4,1.1,2.4,2.4l0,0
		C139.5,38,138.4,39,137.1,39z"/>
</g>
<g>
	<path class="st3" d="M58.1,331.5l27.2-110.8l-35.1-67.1c-0.3-0.6,0.1-1.4,0.8-1.4h10.7c2.6,0,5.1,1,6.9,2.9l51.6,53.1L227,239.9
		l-9.5,68.6l-52.5,23H58.1z"/>
	<path class="st4" d="M49,287.5l21.6-7l-1.8,7.3l-20.4,2.7v-2C48.4,288,48.6,287.7,49,287.5z"/>
	<path class="st5" d="M48.4,299.3v-8.9l20.5-2.7l-3.7,14.9l-16-2.4C48.7,300.2,48.4,299.8,48.4,299.3z"/>
	<path class="st6" d="M95.4,247.4l24.9-39.2l-34.9,12.5l-7.1,28.9h13.1C93,249.6,94.5,248.8,95.4,247.4z"/>
	<g id="PnGiau_1_">
		<g>
			<path class="st2" d="M83.1,170c-0.6-0.1-1.1-0.1-1.7-0.1c-7.7,0-14.2,4.9-16.5,11.7L76.6,204c1.5,0.4,3.1,0.6,4.7,0.6
				c9.7,0,17.4-7.7,17.4-17.3c0-0.5,0-0.9,0-1.4L83.1,170z"/>
			<path class="st0" d="M75.4,187c-0.9,0-1.8,0-2.7,0c-1.1,0-1.6-0.5-1.6-1.6c0-1.6,0.4-2,1.9-2c1.3,0,2.7,0,4,0
				c0.5,0,0.9,0,1.4,0.1c0-1.9,0-3.8,0-5.7c0-1,0.6-1.5,1.5-1.5c0.2,0,0.5,0,0.7,0c1,0,1.5,0.5,1.5,1.5c0,0.9,0,1.9,0,2.8
				c0,0.3,0.1,0.4,0.4,0.4c0.8,0,1.7,0,2.5,0c1,0,1.5,0.5,1.5,1.5c0,0.3,0,0.6,0,0.8c-0.1,0.7-0.6,1.2-1.3,1.2c-1.8,0-3.7,0-5.5,0
				c-0.2,0-0.3,0-0.5-0.1c0,2.1,0,4.3,0,6.4c0,1.4,0.6,2.6,1.9,3.3c1.9,1,4.9,0.2,5.3-2.7c0-0.2,0.1-0.5,0.2-0.7
				c0.2-0.5,0.6-0.8,1.1-0.8s0.9,0,1.4,0c0.8,0,1.3,0.6,1.2,1.4c-0.4,3.8-3,6.6-6.9,6.8c-2,0.1-4-0.3-5.6-1.6
				c-1.8-1.5-2.5-3.5-2.6-5.7c0-1.2,0-2.4,0-3.5C75.5,187.2,75.6,187.1,75.4,187L75.4,187z"/>
		</g>
	</g>
</g>
</svg>
