<?xml version="1.0" encoding="utf-8"?>
<!-- Generator: Adobe Illustrator 21.0.0, SVG Export Plug-In . SVG Version: 6.00 Build 0)  -->
<svg version="1.1" id="Layer_1" xmlns="http://www.w3.org/2000/svg" xmlns:xlink="http://www.w3.org/1999/xlink" x="0px" y="0px"
	 viewBox="0 0 88.5 80.2" style="enable-background:new 0 0 88.5 80.2;" xml:space="preserve">
<style type="text/css">
	.st0{fill:#00D66C;}
</style>
<g>
	<g>
		<path class="st0" d="M85.1,68.2l3.5,12H0l3.4-12C4.1,66,5.2,64,6.9,62.3c1.7-1.7,3.7-2.9,6-3.5l16.3-4.7l15,15
			c0-0.1,0.5-0.7,1.4-1.6c1-1,2.2-2.2,3.6-3.7c1.5-1.5,3.1-3.1,4.8-4.8c1.8-1.7,3.4-3.4,5.1-5l16.4,4.8c2.2,0.6,4.2,1.8,5.9,3.5
			C83.3,64,84.4,66,85.1,68.2z M44.3,49.8c-2.7,0-5.1-0.7-7.3-2.1c-2.2-1.4-4.2-3.3-5.8-5.7c-1.7-2.4-3-5.2-4.1-8.4
			c-1.1-3.2-1.7-6.6-2-10.2c-0.3-3.6,0.1-6.9,1-9.8c1-2.9,2.4-5.3,4.2-7.4c1.8-2,3.9-3.6,6.4-4.7c2.4-1.1,5-1.6,7.7-1.6
			c2.7,0,5.2,0.5,7.7,1.6c2.4,1.1,4.6,2.7,6.4,4.7c1.8,2,3.2,4.5,4.2,7.4c1,2.9,1.3,6.1,1,9.8c-0.3,3.6-1,7-2,10.2
			c-1.1,3.2-2.4,6-4.1,8.4c-1.7,2.4-3.6,4.3-5.8,5.7C49.4,49.1,46.9,49.8,44.3,49.8z"/>
	</g>
</g>
</svg>
