<?xml version="1.0" encoding="utf-8"?>
<!-- Generator: Adobe Illustrator 21.0.0, SVG Export Plug-In . SVG Version: 6.00 Build 0)  -->
<svg version="1.1" id="Layer_1" xmlns="http://www.w3.org/2000/svg" xmlns:xlink="http://www.w3.org/1999/xlink" x="0px" y="0px"
	 viewBox="0 0 88.5 109.6" style="enable-background:new 0 0 88.5 109.6;" xml:space="preserve">
<style type="text/css">
	.st0{fill:#FFFFFF;}
</style>
<g>
	<g>
		<path class="st0" d="M74,109.6H10c-1.2,0-2.3-0.5-3.2-1.4c-0.9-0.9-1.4-2-1.4-3.2V4.6c0-1.2,0.5-2.3,1.4-3.2C7.7,0.5,8.8,0,10,0
			h64 M14.6,9.1v91.4H74V9.1H14.6z M74,0h4.6c1.2,0,2.3,0.5,3.2,1.4c0.9,0.9,1.4,2,1.4,3.2v100.5c0,1.2-0.5,2.3-1.4,3.2
			c-0.9,0.9-2,1.4-3.2,1.4H74l0-9.1V9.1L74,0z M44,61.7l-19.1-19l6.4-6.6L43,47.7l15.4-20.8l7.3,5.4L44,61.7z"/>
	</g>
	<circle class="st0" cx="44.3" cy="87.1" r="5.1"/>
</g>
</svg>
