<?xml version="1.0" encoding="utf-8"?>
<!-- Generator: Adobe Illustrator 21.0.0, SVG Export Plug-In . SVG Version: 6.00 Build 0)  -->
<svg version="1.1" xmlns="http://www.w3.org/2000/svg" xmlns:xlink="http://www.w3.org/1999/xlink" x="0px" y="0px"
	 viewBox="0 0 200 328" style="enable-background:new 0 0 200 328;" xml:space="preserve">
<style type="text/css">
	.st0{display:none;}
	.st1{display:inline;}
	.st2{fill:#FFFFFF;}
	.st3{fill:#00D66C;}
</style>
<g id="Layer_1" class="st0">
	<g class="st1">
		<path class="st2" d="M181.6,328.3H18.4C8.2,328.3,0,320,0,309.9V18.1C0,8,8.2-0.3,18.4-0.3h163.2C191.8-0.3,200,8,200,18.1v291.8
			C200,320,191.8,328.3,181.6,328.3z"/>
		<g>
			<g>
				<path class="st3" d="M155.7,202.3l4.7,16.4H39.6l4.6-16.4c0.9-3.1,2.6-5.8,4.8-8.1c2.3-2.3,5-3.9,8.1-4.8l22.3-6.4l20.5,20.5
					c0-0.2,0.6-0.9,1.9-2.2s2.9-3,5-5c2-2,4.2-4.2,6.6-6.5c2.4-2.4,4.7-4.6,6.9-6.8l22.4,6.5c3.1,0.9,5.8,2.5,8.1,4.8
					C153.2,196.6,154.8,199.3,155.7,202.3z M100,177.2c-3.6,0-6.9-0.9-10-2.8c-3-1.9-5.7-4.5-8-7.7c-2.3-3.3-4.1-7.1-5.6-11.4
					c-1.5-4.4-2.4-9-2.8-14s0.1-9.4,1.4-13.3c1.3-3.9,3.2-7.3,5.7-10c2.5-2.8,5.4-4.9,8.7-6.4c3.3-1.5,6.8-2.2,10.4-2.2
					s7.1,0.7,10.4,2.2s6.2,3.6,8.7,6.4s4.4,6.1,5.7,10c1.3,3.9,1.8,8.4,1.4,13.3c-0.4,5-1.3,9.6-2.8,14s-3.3,8.2-5.6,11.4
					c-2.3,3.3-4.9,5.8-8,7.7C106.9,176.3,103.6,177.2,100,177.2z"/>
			</g>
		</g>
	</g>
</g>
<g id="Layer_2">
	<path class="st2" d="M181.6-0.3H18.4C8.2-0.3,0,8,0,18.1v291.8c0,10.1,8.2,18.4,18.4,18.4h163.2c10.2,0,18.4-8.3,18.4-18.4V18.1
		C200,8,191.8-0.3,181.6-0.3z M75,128c1.3-3.9,3.2-7.3,5.7-10c2.5-2.8,5.4-4.9,8.7-6.4c3.3-1.5,6.8-2.2,10.4-2.2
		c3.6,0,7.1,0.7,10.4,2.2s6.2,3.6,8.7,6.4s4.4,6.1,5.7,10c1.3,3.9,1.8,8.4,1.4,13.3c-0.4,5-1.3,9.6-2.8,14
		c-1.5,4.4-3.3,8.2-5.6,11.4c-2.3,3.3-4.9,5.8-8,7.7c-2.7,1.9-6,2.8-9.6,2.8s-6.9-0.9-10-2.8c-3-1.9-5.7-4.5-8-7.7
		c-2.3-3.3-4.1-7.1-5.6-11.4c-1.5-4.4-2.4-9-2.8-14C73.2,136.3,73.7,131.9,75,128z M39.6,218.7l4.6-16.4c0.9-3.1,2.6-5.8,4.8-8.1
		c2.3-2.3,5-3.9,8.1-4.8l22.3-6.4l20.5,20.5c0-0.2,0.6-0.9,1.9-2.2s2.9-3,5-5c2-2,4.2-4.2,6.6-6.5c2.4-2.4,4.7-4.6,6.9-6.8l22.4,6.5
		c3.1,0.9,5.8,2.5,8.1,4.8c2.4,2.3,4,5,4.9,8l4.7,16.4H39.6z"/>
</g>
</svg>
